<svg width="40" height="40" viewBox="0 0 40 40" fill="none" xmlns="http://www.w3.org/2000/svg">
<path d="M26.9833 3.33337H13.0167C6.95 3.33337 3.33334 6.95004 3.33334 13.0167V26.9667C3.33334 33.05 6.95 36.6667 13.0167 36.6667H26.9667C33.0333 36.6667 36.65 33.05 36.65 26.9834V13.0167C36.6667 6.95004 33.05 3.33337 26.9833 3.33337ZM26.6667 21.25H21.25V26.6667C21.25 27.35 20.6833 27.9167 20 27.9167C19.3167 27.9167 18.75 27.35 18.75 26.6667V21.25H13.3333C12.65 21.25 12.0833 20.6834 12.0833 20C12.0833 19.3167 12.65 18.75 13.3333 18.75H18.75V13.3334C18.75 12.65 19.3167 12.0834 20 12.0834C20.6833 12.0834 21.25 12.65 21.25 13.3334V18.75H26.6667C27.35 18.75 27.9167 19.3167 27.9167 20C27.9167 20.6834 27.35 21.25 26.6667 21.25Z" fill="#C5C7D3"/>
</svg>
