<svg width="30" height="30" viewBox="0 0 30 30" fill="none" xmlns="http://www.w3.org/2000/svg">
<path d="M20.9375 4.45V2.5C20.9375 1.9875 20.5125 1.5625 20 1.5625C19.4875 1.5625 19.0625 1.9875 19.0625 2.5V4.375H10.9375V2.5C10.9375 1.9875 10.5125 1.5625 10 1.5625C9.48754 1.5625 9.06254 1.9875 9.06254 2.5V4.45C5.68754 4.7625 4.05004 6.775 3.80004 9.7625C3.77504 10.125 4.07504 10.425 4.42504 10.425H25.575C25.9375 10.425 26.2375 10.1125 26.2 9.7625C25.95 6.775 24.3125 4.7625 20.9375 4.45Z" fill="#94B8FF"/>
<path d="M25 12.3H5C4.3125 12.3 3.75 12.8625 3.75 13.55V21.25C3.75 25 5.625 27.5 10 27.5H20C24.375 27.5 26.25 25 26.25 21.25V13.55C26.25 12.8625 25.6875 12.3 25 12.3ZM11.5125 22.7625C11.3875 22.875 11.25 22.9625 11.1 23.025C10.95 23.0875 10.7875 23.125 10.625 23.125C10.4625 23.125 10.3 23.0875 10.15 23.025C10 22.9625 9.8625 22.875 9.7375 22.7625C9.5125 22.525 9.375 22.2 9.375 21.875C9.375 21.55 9.5125 21.225 9.7375 20.9875C9.8625 20.875 10 20.7875 10.15 20.725C10.45 20.6 10.8 20.6 11.1 20.725C11.25 20.7875 11.3875 20.875 11.5125 20.9875C11.7375 21.225 11.875 21.55 11.875 21.875C11.875 22.2 11.7375 22.525 11.5125 22.7625ZM11.775 17.975C11.7125 18.125 11.625 18.2625 11.5125 18.3875C11.3875 18.5 11.25 18.5875 11.1 18.65C10.95 18.7125 10.7875 18.75 10.625 18.75C10.4625 18.75 10.3 18.7125 10.15 18.65C10 18.5875 9.8625 18.5 9.7375 18.3875C9.625 18.2625 9.5375 18.125 9.475 17.975C9.4125 17.825 9.375 17.6625 9.375 17.5C9.375 17.3375 9.4125 17.175 9.475 17.025C9.5375 16.875 9.625 16.7375 9.7375 16.6125C9.8625 16.5 10 16.4125 10.15 16.35C10.45 16.225 10.8 16.225 11.1 16.35C11.25 16.4125 11.3875 16.5 11.5125 16.6125C11.625 16.7375 11.7125 16.875 11.775 17.025C11.8375 17.175 11.875 17.3375 11.875 17.5C11.875 17.6625 11.8375 17.825 11.775 17.975ZM15.8875 18.3875C15.7625 18.5 15.625 18.5875 15.475 18.65C15.325 18.7125 15.1625 18.75 15 18.75C14.8375 18.75 14.675 18.7125 14.525 18.65C14.375 18.5875 14.2375 18.5 14.1125 18.3875C13.8875 18.15 13.75 17.825 13.75 17.5C13.75 17.175 13.8875 16.85 14.1125 16.6125C14.2375 16.5 14.375 16.4125 14.525 16.35C14.825 16.2125 15.175 16.2125 15.475 16.35C15.625 16.4125 15.7625 16.5 15.8875 16.6125C16.1125 16.85 16.25 17.175 16.25 17.5C16.25 17.825 16.1125 18.15 15.8875 18.3875Z" fill="#94B8FF"/>
</svg>
