<svg width="34" height="34" viewBox="0 0 34 34" fill="none" xmlns="http://www.w3.org/2000/svg">
<path d="M30.8125 11.3333C30.8125 11.9142 30.3308 12.3958 29.75 12.3958H4.25C3.66917 12.3958 3.1875 11.9142 3.1875 11.3333C3.1875 10.7525 3.66917 10.2708 4.25 10.2708H5.695L6.23333 7.70666C6.74333 5.22749 7.80583 2.94666 12.0275 2.94666H21.9725C26.1942 2.94666 27.2567 5.22749 27.7667 7.70666L28.305 10.2708H29.75C30.3308 10.2708 30.8125 10.7525 30.8125 11.3333Z" fill="#C5C7D3"/>
<path d="M31.4217 19.3517C31.2092 17.0142 30.5858 14.5209 26.0383 14.5209H7.96167C3.41417 14.5209 2.805 17.0142 2.57834 19.3517L1.785 27.9792C1.68584 29.0559 2.04 30.1325 2.77667 30.94C3.5275 31.7617 4.59 32.2292 5.72334 32.2292H8.38667C10.6817 32.2292 11.1208 30.9117 11.4042 30.0475L11.6875 29.1975C12.0133 28.22 12.0983 27.9792 13.3733 27.9792H20.6267C21.9017 27.9792 21.9442 28.1209 22.3125 29.1975L22.5958 30.0475C22.8792 30.9117 23.3183 32.2292 25.6133 32.2292H28.2767C29.3958 32.2292 30.4725 31.7617 31.2233 30.94C31.96 30.1325 32.3142 29.0559 32.215 27.9792L31.4217 19.3517ZM12.75 22.3125H8.5C7.91917 22.3125 7.4375 21.8309 7.4375 21.25C7.4375 20.6692 7.91917 20.1875 8.5 20.1875H12.75C13.3308 20.1875 13.8125 20.6692 13.8125 21.25C13.8125 21.8309 13.3308 22.3125 12.75 22.3125ZM25.5 22.3125H21.25C20.6692 22.3125 20.1875 21.8309 20.1875 21.25C20.1875 20.6692 20.6692 20.1875 21.25 20.1875H25.5C26.0808 20.1875 26.5625 20.6692 26.5625 21.25C26.5625 21.8309 26.0808 22.3125 25.5 22.3125Z" fill="#C5C7D3"/>
</svg>
