<svg width="40" height="46" viewBox="0 0 40 46" fill="none" xmlns="http://www.w3.org/2000/svg">
<path d="M36.25 19.3333C36.25 20.0167 35.6833 20.5833 35 20.5833H5C4.31667 20.5833 3.75 20.0167 3.75 19.3333C3.75 18.65 4.31667 18.0833 5 18.0833H6.7L7.33333 15.0667C7.93333 12.15 9.18333 9.46667 14.15 9.46667H25.85C30.8167 9.46667 32.0667 12.15 32.6667 15.0667L33.3 18.0833H35C35.6833 18.0833 36.25 18.65 36.25 19.3333Z" fill="#C5C7D3"/>
<path d="M36.9667 28.7667C36.7167 26.0167 35.9833 23.0834 30.6333 23.0834H9.36667C4.01667 23.0834 3.3 26.0167 3.03333 28.7667L2.1 38.9167C1.98333 40.1834 2.4 41.45 3.26667 42.4C4.15 43.3667 5.4 43.9167 6.73333 43.9167H9.86667C12.5667 43.9167 13.0833 42.3667 13.4167 41.35L13.75 40.35C14.1333 39.2 14.2333 38.9167 15.7333 38.9167H24.2667C25.7667 38.9167 25.8167 39.0834 26.25 40.35L26.5833 41.35C26.9167 42.3667 27.4333 43.9167 30.1333 43.9167H33.2667C34.5833 43.9167 35.85 43.3667 36.7333 42.4C37.6 41.45 38.0167 40.1834 37.9 38.9167L36.9667 28.7667ZM15 32.25H10C9.31667 32.25 8.75 31.6834 8.75 31C8.75 30.3167 9.31667 29.75 10 29.75H15C15.6833 29.75 16.25 30.3167 16.25 31C16.25 31.6834 15.6833 32.25 15 32.25ZM30 32.25H25C24.3167 32.25 23.75 31.6834 23.75 31C23.75 30.3167 24.3167 29.75 25 29.75H30C30.6833 29.75 31.25 30.3167 31.25 31C31.25 31.6834 30.6833 32.25 30 32.25Z" fill="#C5C7D3"/>
<path d="M34.4763 6.42551C34.8649 5.77919 35.8018 5.77919 36.1904 6.42551L36.7069 7.28466C36.7912 7.42482 36.9085 7.54217 37.0487 7.62643L37.9078 8.14297C38.5541 8.53154 38.5541 9.46846 37.9078 9.85703L37.0487 10.3736C36.9085 10.4578 36.7912 10.5752 36.7069 10.7153L36.1904 11.5745C35.8018 12.2208 34.8649 12.2208 34.4763 11.5745L33.9598 10.7153C33.8755 10.5752 33.7582 10.4578 33.618 10.3736L32.7588 9.85703C32.1125 9.46846 32.1125 8.53154 32.7588 8.14297L33.618 7.62643C33.7582 7.54217 33.8755 7.42482 33.9598 7.28466L34.4763 6.42551Z" fill="#C5C7D3"/>
<path d="M19.143 1.42551C19.5315 0.779187 20.4685 0.779187 20.857 1.42551L21.3736 2.28466C21.4578 2.42482 21.5752 2.54217 21.7153 2.62643L22.5745 3.14297C23.2208 3.53154 23.2208 4.46846 22.5745 4.85703L21.7153 5.37357C21.5752 5.45783 21.4578 5.57518 21.3736 5.71534L20.857 6.57449C20.4685 7.22081 19.5315 7.22081 19.143 6.57449L18.6264 5.71534C18.5422 5.57518 18.4248 5.45783 18.2847 5.37357L17.4255 4.85703C16.7792 4.46846 16.7792 3.53154 17.4255 3.14297L18.2847 2.62643C18.4248 2.54217 18.5422 2.42482 18.6264 2.28466L19.143 1.42551Z" fill="#C5C7D3"/>
<path d="M3.80963 6.42551C4.19821 5.77919 5.13512 5.77919 5.5237 6.42551L6.04023 7.28466C6.1245 7.42482 6.24185 7.54217 6.38201 7.62643L7.24116 8.14297C7.88748 8.53154 7.88748 9.46846 7.24116 9.85703L6.38201 10.3736C6.24185 10.4578 6.1245 10.5752 6.04023 10.7153L5.5237 11.5745C5.13512 12.2208 4.19821 12.2208 3.80963 11.5745L3.2931 10.7153C3.20883 10.5752 3.09148 10.4578 2.95132 10.3736L2.09217 9.85703C1.44585 9.46846 1.44585 8.53154 2.09217 8.14297L2.95132 7.62643C3.09148 7.54217 3.20883 7.42482 3.2931 7.28466L3.80963 6.42551Z" fill="#C5C7D3"/>
</svg>
