<svg width="120" height="120" viewBox="0 0 120 120" fill="none" xmlns="http://www.w3.org/2000/svg">
<path d="M99.998 58.7504H19.998C18.848 58.7504 17.798 58.2504 17.098 57.3504C16.398 56.5004 16.098 55.3004 16.348 54.2004L21.998 27.2004C23.848 18.4504 27.598 10.4004 42.448 10.4004H77.598C92.448 10.4004 96.198 18.5004 98.048 27.2004L103.698 54.2504C103.948 55.3504 103.648 56.5004 102.948 57.4004C102.198 58.2504 101.148 58.7504 99.998 58.7504ZM24.598 51.2504H95.348L90.648 28.7504C89.248 22.2004 87.598 17.9004 77.548 17.9004H42.448C32.398 17.9004 30.748 22.2004 29.348 28.7504L24.598 51.2504Z" fill="white"/>
<path d="M99.798 113.75H90.398C82.298 113.75 80.748 109.1 79.748 106.05L78.748 103.05C77.448 99.2504 77.298 98.7504 72.798 98.7504H47.198C42.698 98.7504 42.398 99.6004 41.248 103.05L40.248 106.05C39.198 109.15 37.698 113.75 29.598 113.75H20.198C16.248 113.75 12.448 112.1 9.79799 109.2C7.19799 106.35 5.94799 102.55 6.29799 98.7504L9.09799 68.3004C9.84799 60.0504 12.048 51.2504 28.098 51.2504H91.898C107.948 51.2504 110.098 60.0504 110.898 68.3004L113.698 98.7504C114.048 102.55 112.798 106.35 110.198 109.2C107.548 112.1 103.748 113.75 99.798 113.75ZM47.198 91.2504H72.798C81.898 91.2504 84.048 95.3004 85.848 100.6L86.898 103.7C87.748 106.25 87.748 106.3 90.448 106.3H99.848C101.698 106.3 103.448 105.55 104.698 104.2C105.898 102.9 106.448 101.25 106.298 99.5004L103.498 69.0504C102.848 62.3004 102.048 58.8004 91.998 58.8004H28.098C17.998 58.8004 17.198 62.3004 16.598 69.0504L13.798 99.5004C13.648 101.25 14.198 102.9 15.398 104.2C16.598 105.55 18.398 106.3 20.248 106.3H29.648C32.348 106.3 32.348 106.25 33.198 103.75L34.198 100.7C35.448 96.7004 37.298 91.2504 47.198 91.2504Z" fill="white"/>
<path d="M19.998 43.7504H14.998C12.948 43.7504 11.248 42.0504 11.248 40.0004C11.248 37.9504 12.948 36.2504 14.998 36.2504H19.998C22.048 36.2504 23.748 37.9504 23.748 40.0004C23.748 42.0504 22.048 43.7504 19.998 43.7504Z" fill="white"/>
<path d="M104.998 43.7504H99.998C97.948 43.7504 96.248 42.0504 96.248 40.0004C96.248 37.9504 97.948 36.2504 99.998 36.2504H104.998C107.048 36.2504 108.748 37.9504 108.748 40.0004C108.748 42.0504 107.048 43.7504 104.998 43.7504Z" fill="white"/>
<path d="M59.998 28.7504C57.948 28.7504 56.248 27.0504 56.248 25.0004V15.0004C56.248 12.9504 57.948 11.2504 59.998 11.2504C62.048 11.2504 63.748 12.9504 63.748 15.0004V25.0004C63.748 27.0504 62.048 28.7504 59.998 28.7504Z" fill="white"/>
<path d="M67.498 28.7504H52.498C50.448 28.7504 48.748 27.0504 48.748 25.0004C48.748 22.9504 50.448 21.2504 52.498 21.2504H67.498C69.548 21.2504 71.248 22.9504 71.248 25.0004C71.248 27.0504 69.548 28.7504 67.498 28.7504Z" fill="white"/>
<path d="M44.998 78.7504H29.998C27.948 78.7504 26.248 77.0504 26.248 75.0004C26.248 72.9504 27.948 71.2504 29.998 71.2504H44.998C47.048 71.2504 48.748 72.9504 48.748 75.0004C48.748 77.0504 47.048 78.7504 44.998 78.7504Z" fill="white"/>
<path d="M89.998 78.7504H74.998C72.948 78.7504 71.248 77.0504 71.248 75.0004C71.248 72.9504 72.948 71.2504 74.998 71.2504H89.998C92.048 71.2504 93.748 72.9504 93.748 75.0004C93.748 77.0504 92.048 78.7504 89.998 78.7504Z" fill="white"/>
</svg>
