<svg width="120" height="138" viewBox="0 0 120 138" fill="none" xmlns="http://www.w3.org/2000/svg">
<path d="M99.998 76.7504H19.998C18.848 76.7504 17.798 76.2504 17.098 75.3504C16.398 74.5004 16.098 73.3004 16.348 72.2004L21.998 45.2004C23.848 36.4504 27.598 28.4004 42.448 28.4004H77.598C92.448 28.4004 96.198 36.5004 98.048 45.2004L103.698 72.2504C103.948 73.3504 103.648 74.5004 102.948 75.4004C102.198 76.2504 101.148 76.7504 99.998 76.7504ZM24.598 69.2504H95.348L90.648 46.7504C89.248 40.2004 87.598 35.9004 77.548 35.9004H42.448C32.398 35.9004 30.748 40.2004 29.348 46.7504L24.598 69.2504Z" fill="white"/>
<path d="M99.798 131.75H90.398C82.298 131.75 80.748 127.1 79.748 124.05L78.748 121.05C77.448 117.25 77.298 116.75 72.798 116.75H47.198C42.698 116.75 42.398 117.6 41.248 121.05L40.248 124.05C39.198 127.15 37.698 131.75 29.598 131.75H20.198C16.248 131.75 12.448 130.1 9.79799 127.2C7.19799 124.35 5.94799 120.55 6.29799 116.75L9.09799 86.3004C9.84799 78.0504 12.048 69.2504 28.098 69.2504H91.898C107.948 69.2504 110.098 78.0504 110.898 86.3004L113.698 116.75C114.048 120.55 112.798 124.35 110.198 127.2C107.548 130.1 103.748 131.75 99.798 131.75ZM47.198 109.25H72.798C81.898 109.25 84.048 113.3 85.848 118.6L86.898 121.7C87.748 124.25 87.748 124.3 90.448 124.3H99.848C101.698 124.3 103.448 123.55 104.698 122.2C105.898 120.9 106.448 119.25 106.298 117.5L103.498 87.0504C102.848 80.3004 102.048 76.8004 91.998 76.8004H28.098C17.998 76.8004 17.198 80.3004 16.598 87.0504L13.798 117.5C13.648 119.25 14.198 120.9 15.398 122.2C16.598 123.55 18.398 124.3 20.248 124.3H29.648C32.348 124.3 32.348 124.25 33.198 121.75L34.198 118.7C35.448 114.7 37.298 109.25 47.198 109.25Z" fill="white"/>
<path d="M19.998 61.7504H14.998C12.948 61.7504 11.248 60.0504 11.248 58.0004C11.248 55.9504 12.948 54.2504 14.998 54.2504H19.998C22.048 54.2504 23.748 55.9504 23.748 58.0004C23.748 60.0504 22.048 61.7504 19.998 61.7504Z" fill="white"/>
<path d="M104.998 61.7504H99.998C97.948 61.7504 96.248 60.0504 96.248 58.0004C96.248 55.9504 97.948 54.2504 99.998 54.2504H104.998C107.048 54.2504 108.748 55.9504 108.748 58.0004C108.748 60.0504 107.048 61.7504 104.998 61.7504Z" fill="white"/>
<path d="M59.998 46.7504C57.948 46.7504 56.248 45.0504 56.248 43.0004V33.0004C56.248 30.9504 57.948 29.2504 59.998 29.2504C62.048 29.2504 63.748 30.9504 63.748 33.0004V43.0004C63.748 45.0504 62.048 46.7504 59.998 46.7504Z" fill="white"/>
<path d="M67.498 46.7504H52.498C50.448 46.7504 48.748 45.0504 48.748 43.0004C48.748 40.9504 50.448 39.2504 52.498 39.2504H67.498C69.548 39.2504 71.248 40.9504 71.248 43.0004C71.248 45.0504 69.548 46.7504 67.498 46.7504Z" fill="white"/>
<path d="M44.998 96.7504H29.998C27.948 96.7504 26.248 95.0504 26.248 93.0004C26.248 90.9504 27.948 89.2504 29.998 89.2504H44.998C47.048 89.2504 48.748 90.9504 48.748 93.0004C48.748 95.0504 47.048 96.7504 44.998 96.7504Z" fill="white"/>
<path d="M89.998 96.7504H74.998C72.948 96.7504 71.248 95.0504 71.248 93.0004C71.248 90.9504 72.948 89.2504 74.998 89.2504H89.998C92.048 89.2504 93.748 90.9504 93.748 93.0004C93.748 95.0504 92.048 96.7504 89.998 96.7504Z" fill="white"/>
<path d="M102.736 25.1331L102.202 23.7927L102.736 25.1331C103.374 24.879 103.879 24.3739 104.133 23.7362L102.74 23.1809L104.133 23.7362L106 19.0517L107.867 23.7362L109.242 23.1882L107.867 23.7362C108.121 24.3739 108.626 24.879 109.264 25.1331L109.819 23.7397L109.264 25.1331L113.948 27L109.264 28.8669L109.778 30.1581L109.264 28.8669C108.626 29.121 108.121 29.6261 107.867 30.2638L109.26 30.8191L107.867 30.2638L106 34.9483L104.133 30.2638L102.873 30.7661L104.133 30.2638C103.879 29.6261 103.374 29.121 102.736 28.8669L102.181 30.2603L102.736 28.8669L98.0517 27L102.736 25.1331Z" stroke="white" stroke-width="3"/>
<path d="M56.7362 10.1331L56.2021 8.79273L56.7362 10.1331C57.3739 9.87896 57.879 9.37386 58.1331 8.73624L56.7397 8.18092L58.1331 8.73624L60 4.05171L61.8669 8.73624L63.242 8.18824L61.8669 8.73624C62.121 9.37386 62.6261 9.87896 63.2638 10.1331L63.8191 8.73965L63.2638 10.1331L67.9483 12L63.2638 13.8669L63.7783 15.1581L63.2638 13.8669C62.6261 14.121 62.121 14.6261 61.8669 15.2638L63.2603 15.8191L61.8669 15.2638L60 19.9483L58.1331 15.2638L56.8726 15.7661L58.1331 15.2638C57.879 14.6261 57.3739 14.121 56.7362 13.8669L56.1809 15.2603L56.7362 13.8669L52.0517 12L56.7362 10.1331Z" stroke="white" stroke-width="3"/>
<path d="M10.7362 25.1331L10.2021 23.7927L10.7362 25.1331C11.3739 24.879 11.879 24.3739 12.1331 23.7362L10.7397 23.1809L12.1331 23.7362L14 19.0517L15.8669 23.7362L17.242 23.1882L15.8669 23.7362C16.121 24.3739 16.6261 24.879 17.2638 25.1331L17.8191 23.7397L17.2638 25.1331L21.9483 27L17.2638 28.8669L17.7783 30.1581L17.2638 28.8669C16.6261 29.121 16.121 29.6261 15.8669 30.2638L17.2603 30.8191L15.8669 30.2638L14 34.9483L12.1331 30.2638L10.8726 30.7661L12.1331 30.2638C11.879 29.6261 11.3739 29.121 10.7362 28.8669L10.1809 30.2603L10.7362 28.8669L6.05171 27L10.7362 25.1331Z" stroke="white" stroke-width="3"/>
</svg>
