<svg width="30" height="30" viewBox="0 0 30 30" fill="none" xmlns="http://www.w3.org/2000/svg">
<path d="M15 2.5C8.1125 2.5 2.5 8.1125 2.5 15C2.5 21.8875 8.1125 27.5 15 27.5C21.8875 27.5 27.5 21.8875 27.5 15C27.5 8.1125 21.8875 2.5 15 2.5ZM20.4375 19.4625C20.2625 19.7625 19.95 19.925 19.625 19.925C19.4625 19.925 19.3 19.8875 19.15 19.7875L15.275 17.475C14.3125 16.9 13.6 15.6375 13.6 14.525V9.4C13.6 8.8875 14.025 8.4625 14.5375 8.4625C15.05 8.4625 15.475 8.8875 15.475 9.4V14.525C15.475 14.975 15.85 15.6375 16.2375 15.8625L20.1125 18.175C20.5625 18.4375 20.7125 19.0125 20.4375 19.4625Z" fill="#94B8FF"/>
</svg>
