<svg width="128" height="118" viewBox="0 0 128 118" fill="none" xmlns="http://www.w3.org/2000/svg">
<circle cx="58.009" cy="46.8555" r="6.34676" fill="url(#paint0_radial_8_969)"/>
<g opacity="0.67" filter="url(#filter0_f_8_969)">
<path d="M71.4554 47.7088C75.706 51.545 85.681 55.6127 81.8449 59.8633C78.0088 64.1139 56.0823 76.2561 46.9528 71.5628C42.7022 67.7266 50.761 55.3748 54.5971 51.1242C58.4333 46.8736 67.2048 43.8727 71.4554 47.7088Z" fill="url(#paint1_linear_8_969)" fill-opacity="0.3"/>
</g>
<g filter="url(#filter1_ii_8_969)">
<path fill-rule="evenodd" clip-rule="evenodd" d="M64.8776 64.2751V64.2755H56.5314C52.3772 64.2755 49.0095 60.9078 49.0095 56.7536C49.0095 52.5994 52.3772 49.2317 56.5314 49.2317H56.9435C58.4016 49.2317 59.7678 49.6251 60.9419 50.3114C62.4681 45.7896 66.7444 42.5338 71.7812 42.5338H72.3479C78.3516 42.5338 83.2185 47.4008 83.2185 53.4045C83.2185 59.4082 78.3516 64.2751 72.3479 64.2751H64.8776Z" fill="white"/>
</g>
<defs>
<filter id="filter0_f_8_969" x="0.747314" y="0.943237" width="126.959" height="116.681" filterUnits="userSpaceOnUse" color-interpolation-filters="sRGB">
<feFlood flood-opacity="0" result="BackgroundImageFix"/>
<feBlend mode="normal" in="SourceGraphic" in2="BackgroundImageFix" result="shape"/>
<feGaussianBlur stdDeviation="22.5" result="effect1_foregroundBlur_8_969"/>
</filter>
<filter id="filter1_ii_8_969" x="31.0095" y="27.5338" width="60.209" height="47.7417" filterUnits="userSpaceOnUse" color-interpolation-filters="sRGB">
<feFlood flood-opacity="0" result="BackgroundImageFix"/>
<feBlend mode="normal" in="SourceGraphic" in2="BackgroundImageFix" result="shape"/>
<feColorMatrix in="SourceAlpha" type="matrix" values="0 0 0 0 0 0 0 0 0 0 0 0 0 0 0 0 0 0 127 0" result="hardAlpha"/>
<feOffset dx="8" dy="-15"/>
<feGaussianBlur stdDeviation="15"/>
<feComposite in2="hardAlpha" operator="arithmetic" k2="-1" k3="1"/>
<feColorMatrix type="matrix" values="0 0 0 0 0 0 0 0 0 0 0 0 0 0 0 0 0 0 0.2 0"/>
<feBlend mode="normal" in2="shape" result="effect1_innerShadow_8_969"/>
<feColorMatrix in="SourceAlpha" type="matrix" values="0 0 0 0 0 0 0 0 0 0 0 0 0 0 0 0 0 0 127 0" result="hardAlpha"/>
<feOffset dx="-18" dy="11"/>
<feGaussianBlur stdDeviation="15"/>
<feComposite in2="hardAlpha" operator="arithmetic" k2="-1" k3="1"/>
<feColorMatrix type="matrix" values="0 0 0 0 1 0 0 0 0 1 0 0 0 0 1 0 0 0 1 0"/>
<feBlend mode="normal" in2="effect1_innerShadow_8_969" result="effect2_innerShadow_8_969"/>
</filter>
<radialGradient id="paint0_radial_8_969" cx="0" cy="0" r="1" gradientUnits="userSpaceOnUse" gradientTransform="translate(60.5342 43.396) rotate(132.136) scale(13.2241)">
<stop stop-color="#FFF72C"/>
<stop offset="1" stop-color="#DF7800"/>
</radialGradient>
<linearGradient id="paint1_linear_8_969" x1="51.467" y1="73.4423" x2="76.1569" y2="45.7337" gradientUnits="userSpaceOnUse">
<stop stop-color="#254659"/>
<stop offset="1" stop-color="#023553"/>
</linearGradient>
</defs>
</svg>
