<svg width="40" height="40" viewBox="0 0 40 40" fill="none" xmlns="http://www.w3.org/2000/svg">
<path d="M18.75 13.4667V18.2333L17.0667 17.65C16.2167 17.35 15.7 17.0667 15.7 15.6167C15.7 14.4333 16.5833 13.4667 17.6667 13.4667H18.75Z" fill="#C5C7D3"/>
<path d="M24.3 24.3834C24.3 25.5667 23.4167 26.5334 22.3333 26.5334H21.25V21.7667L22.9333 22.3501C23.7833 22.6501 24.3 22.9334 24.3 24.3834Z" fill="#C5C7D3"/>
<path d="M26.9833 3.33337H13.0167C6.95 3.33337 3.33334 6.95004 3.33334 13.0167V26.9834C3.33334 33.05 6.95 36.6667 13.0167 36.6667H26.9833C33.05 36.6667 36.6667 33.05 36.6667 26.9834V13.0167C36.6667 6.95004 33.05 3.33337 26.9833 3.33337ZM23.7667 20C25.0667 20.45 26.8 21.4 26.8 24.3834C26.8 26.95 24.8 29.0334 22.3333 29.0334H21.25V30C21.25 30.6834 20.6833 31.25 20 31.25C19.3167 31.25 18.75 30.6834 18.75 30V29.0334H18.15C15.4167 29.0334 13.2 26.7167 13.2 23.8834C13.2 23.2 13.75 22.6334 14.45 22.6334C15.1333 22.6334 15.7 23.2 15.7 23.8834C15.7 25.35 16.8 26.5334 18.15 26.5334H18.75V20.8834L16.2333 20C14.9333 19.55 13.2 18.6 13.2 15.6167C13.2 13.05 15.2 10.9667 17.6667 10.9667H18.75V10C18.75 9.31671 19.3167 8.75004 20 8.75004C20.6833 8.75004 21.25 9.31671 21.25 10V10.9667H21.85C24.5833 10.9667 26.8 13.2834 26.8 16.1167C26.8 16.8 26.25 17.3667 25.55 17.3667C24.8667 17.3667 24.3 16.8 24.3 16.1167C24.3 14.65 23.2 13.4667 21.85 13.4667H21.25V19.1167L23.7667 20Z" fill="#C5C7D3"/>
</svg>
