<svg width="40" height="40" viewBox="0 0 40 40" fill="none" xmlns="http://www.w3.org/2000/svg">
<path d="M35 36.6665H5C4.31667 36.6665 3.75 36.0998 3.75 35.4165C3.75 34.7332 4.31667 34.1665 5 34.1665H35C35.6833 34.1665 36.25 34.7332 36.25 35.4165C36.25 36.0998 35.6833 36.6665 35 36.6665Z" fill="white"/>
<path d="M31.7 5.8001C28.4666 2.56677 25.3 2.48343 21.9833 5.8001L19.9666 7.81677C19.8 7.98343 19.7333 8.2501 19.8 8.48343C21.0666 12.9001 24.6 16.4334 29.0166 17.7001C29.0833 17.7168 29.15 17.7334 29.2166 17.7334C29.4 17.7334 29.5666 17.6668 29.7 17.5334L31.7 15.5168C33.35 13.8834 34.15 12.3001 34.15 10.7001C34.1666 9.0501 33.3666 7.4501 31.7 5.8001Z" fill="white"/>
<path d="M26.0166 19.2168C25.5333 18.9835 25.0666 18.7502 24.6166 18.4835C24.25 18.2668 23.9 18.0335 23.55 17.7835C23.2666 17.6002 22.9333 17.3335 22.6166 17.0668C22.5833 17.0502 22.4666 16.9502 22.3333 16.8168C21.7833 16.3502 21.1666 15.7502 20.6166 15.0835C20.5666 15.0502 20.4833 14.9335 20.3666 14.7835C20.2 14.5835 19.9166 14.2502 19.6666 13.8668C19.4666 13.6168 19.2333 13.2502 19.0166 12.8835C18.75 12.4335 18.5166 11.9835 18.2833 11.5168C18.1716 11.2774 18.0713 11.0418 17.9788 10.8119C17.8428 10.4737 17.4062 10.3773 17.1484 10.635L7.2333 20.5502C7.01663 20.7668 6.81663 21.1835 6.76663 21.4668L5.86663 27.8502C5.69996 28.9835 6.01663 30.0502 6.71663 30.7668C7.31663 31.3502 8.14996 31.6668 9.04996 31.6668C9.24996 31.6668 9.44996 31.6502 9.64996 31.6168L16.05 30.7168C16.35 30.6668 16.7666 30.4668 16.9666 30.2502L26.8746 20.3422C27.1342 20.0826 27.0355 19.6394 26.6952 19.5019C26.4754 19.4131 26.2515 19.3186 26.0166 19.2168Z" fill="white"/>
</svg>
