<svg width="40" height="40" viewBox="0 0 40 40" fill="none" xmlns="http://www.w3.org/2000/svg">
<path d="M33.4 11.3667L23.8 4.65006C21.1833 2.81673 17.1667 2.91673 14.65 4.86673L6.3 11.3834C4.63333 12.6834 3.31667 15.3501 3.31667 17.4501V28.9501C3.31667 33.2001 6.76667 36.6667 11.0167 36.6667H28.9833C33.2333 36.6667 36.6833 33.2167 36.6833 28.9667V17.6667C36.6833 15.4167 35.2333 12.6501 33.4 11.3667ZM21.25 30.0001C21.25 30.6834 20.6833 31.2501 20 31.2501C19.3167 31.2501 18.75 30.6834 18.75 30.0001V25.0001C18.75 24.3167 19.3167 23.7501 20 23.7501C20.6833 23.7501 21.25 24.3167 21.25 25.0001V30.0001Z" fill="#C5C7D3"/>
</svg>
