<svg width="35" height="35" viewBox="0 0 35 35" fill="none" xmlns="http://www.w3.org/2000/svg">
<path d="M32.0833 33.1772H2.91666C2.31875 33.1772 1.82291 32.6814 1.82291 32.0835C1.82291 31.4856 2.31875 30.9897 2.91666 30.9897H32.0833C32.6813 30.9897 33.1771 31.4856 33.1771 32.0835C33.1771 32.6814 32.6813 33.1772 32.0833 33.1772Z" fill="white"/>
<path d="M5.39612 32.0835H3.20862L3.28154 14.5397C3.28154 13.3001 3.85029 12.1481 4.82737 11.3897L15.0357 3.4418C16.4795 2.31888 18.5065 2.31888 19.9649 3.4418L30.1732 11.3751C31.1357 12.1335 31.719 13.3147 31.719 14.5397V32.0835H29.5315V14.5543C29.5315 14.0001 29.269 13.4606 28.8315 13.1106L18.6232 5.17722C17.967 4.6668 17.0482 4.6668 16.3774 5.17722L6.16904 13.1252C5.73154 13.4606 5.46904 14.0001 5.46904 14.5543L5.39612 32.0835Z" fill="white"/>
<path d="M24.7917 33.1769H10.2083C9.61042 33.1769 9.11459 32.6811 9.11459 32.0832V18.229C9.11459 16.4207 10.5875 14.9478 12.3958 14.9478H22.6042C24.4125 14.9478 25.8854 16.4207 25.8854 18.229V32.0832C25.8854 32.6811 25.3896 33.1769 24.7917 33.1769ZM11.3021 30.9894H23.6979V18.229C23.6979 17.6311 23.2021 17.1353 22.6042 17.1353H12.3958C11.7979 17.1353 11.3021 17.6311 11.3021 18.229V30.9894Z" fill="white"/>
<path d="M19.6875 12.0312H15.3125C14.7146 12.0312 14.2188 11.5354 14.2188 10.9375C14.2188 10.3396 14.7146 9.84375 15.3125 9.84375H19.6875C20.2854 9.84375 20.7812 10.3396 20.7812 10.9375C20.7812 11.5354 20.2854 12.0312 19.6875 12.0312Z" fill="white"/>
</svg>
