<svg width="35" height="35" viewBox="0 0 35 35" fill="none" xmlns="http://www.w3.org/2000/svg">
<path d="M31.6458 9.31885H21.0438C20.4458 9.31885 19.95 8.82301 19.95 8.2251C19.95 7.62718 20.4458 7.13135 21.0438 7.13135H31.6458C32.2438 7.13135 32.7396 7.62718 32.7396 8.2251C32.7396 8.82301 32.2438 9.31885 31.6458 9.31885Z" fill="white"/>
<path d="M13.9709 9.31885H3.35419C2.75627 9.31885 2.26044 8.82301 2.26044 8.2251C2.26044 7.62718 2.75627 7.13135 3.35419 7.13135H13.9563C14.5542 7.13135 15.05 7.62718 15.05 8.2251C15.05 8.82301 14.5688 9.31885 13.9709 9.31885Z" fill="white"/>
<path d="M31.6458 23.4502H21.0438C20.4458 23.4502 19.95 22.9544 19.95 22.3564C19.95 21.7585 20.4458 21.2627 21.0438 21.2627H31.6458C32.2438 21.2627 32.7396 21.7585 32.7396 22.3564C32.7396 22.9544 32.2438 23.4502 31.6458 23.4502Z" fill="white"/>
<path d="M31.6458 32.2876H21.0438C20.4458 32.2876 19.95 31.7918 19.95 31.1938C19.95 30.5959 20.4458 30.1001 21.0438 30.1001H31.6458C32.2438 30.1001 32.7396 30.5959 32.7396 31.1938C32.7396 31.7918 32.2438 32.2876 31.6458 32.2876Z" fill="white"/>
<path d="M26.3812 14.6123C25.7833 14.6123 25.2875 14.1165 25.2875 13.5186V2.9165C25.2875 2.31859 25.7833 1.82275 26.3812 1.82275C26.9791 1.82275 27.475 2.31859 27.475 2.9165V13.5186C27.475 14.1311 26.9937 14.6123 26.3812 14.6123Z" fill="white"/>
<path d="M3.35414 33.1771C3.07706 33.1771 2.79998 33.075 2.58123 32.8562C2.15831 32.4333 2.15831 31.7333 2.58123 31.3104L13.1833 20.7083C13.6062 20.2854 14.3062 20.2854 14.7291 20.7083C15.1521 21.1312 15.1521 21.8312 14.7291 22.2541L4.12706 32.8562C3.92289 33.075 3.64581 33.1771 3.35414 33.1771Z" fill="white"/>
<path d="M13.9708 33.1771C13.6937 33.1771 13.4166 33.075 13.1979 32.8562L2.59581 22.2541C2.1729 21.8312 2.1729 21.1312 2.59581 20.7083C3.01873 20.2854 3.71873 20.2854 4.14165 20.7083L14.7437 31.3104C15.1666 31.7333 15.1666 32.4333 14.7437 32.8562C14.525 33.075 14.2479 33.1771 13.9708 33.1771Z" fill="white"/>
</svg>
