<svg width="120" height="120" viewBox="0 0 120 120" fill="none" xmlns="http://www.w3.org/2000/svg">
<path d="M65.2499 81.2499H55.8501C49.2001 81.2499 43.75 75.6499 43.75 68.7499C43.75 66.6999 45.45 64.9999 47.5 64.9999C49.55 64.9999 51.25 66.6999 51.25 68.7499C51.25 71.4999 53.3001 73.7499 55.8501 73.7499H65.2499C67.1999 73.7499 68.75 71.9999 68.75 69.8499C68.75 67.1499 68 66.7499 66.3 66.1499L51.25 60.8999C48.05 59.7999 43.75 57.4499 43.75 50.0999C43.75 43.8499 48.7001 38.7 54.7501 38.7H64.1499C70.7999 38.7 76.25 44.3 76.25 51.2C76.25 53.25 74.55 54.95 72.5 54.95C70.45 54.95 68.75 53.25 68.75 51.2C68.75 48.45 66.6999 46.2 64.1499 46.2H54.7501C52.8001 46.2 51.25 47.9499 51.25 50.0999C51.25 52.7999 52 53.1999 53.7 53.7999L68.75 59.0499C71.95 60.1499 76.25 62.4999 76.25 69.8499C76.25 76.1499 71.2999 81.2499 65.2499 81.2499Z" fill="white"/>
<path d="M60 86.25C57.95 86.25 56.25 84.55 56.25 82.5V37.5C56.25 35.45 57.95 33.75 60 33.75C62.05 33.75 63.75 35.45 63.75 37.5V82.5C63.75 84.55 62.05 86.25 60 86.25Z" fill="white"/>
<path d="M60 113.75C30.35 113.75 6.25 89.65 6.25 60C6.25 30.35 30.35 6.25 60 6.25C62.05 6.25 63.75 7.95 63.75 10C63.75 12.05 62.05 13.75 60 13.75C34.5 13.75 13.75 34.5 13.75 60C13.75 85.5 34.5 106.25 60 106.25C85.5 106.25 106.25 85.5 106.25 60C106.25 57.95 107.95 56.25 110 56.25C112.05 56.25 113.75 57.95 113.75 60C113.75 89.65 89.65 113.75 60 113.75Z" fill="white"/>
<path d="M105 38.75H85C82.95 38.75 81.25 37.05 81.25 35V15C81.25 12.95 82.95 11.25 85 11.25C87.05 11.25 88.75 12.95 88.75 15V31.25H105C107.05 31.25 108.75 32.95 108.75 35C108.75 37.05 107.05 38.75 105 38.75Z" fill="white"/>
<path d="M84.9997 38.7499C84.0497 38.7499 83.0997 38.3999 82.3497 37.6499C80.8997 36.1999 80.8997 33.8 82.3497 32.35L107.35 7.34995C108.8 5.89995 111.2 5.89995 112.65 7.34995C114.1 8.79995 114.1 11.1999 112.65 12.6499L87.6497 37.6499C86.8997 38.3999 85.9497 38.7499 84.9997 38.7499Z" fill="white"/>
</svg>
