<svg width="40" height="40" viewBox="0 0 40 40" fill="none" xmlns="http://www.w3.org/2000/svg">
<path d="M17.0834 16.7165C17.0834 17.6165 17.3334 17.7498 17.9 17.9498L18.75 18.2498V15.4165H18.25C17.6167 15.4165 17.0834 15.9998 17.0834 16.7165Z" fill="white"/>
<path d="M21.25 24.5833H21.75C22.4 24.5833 22.9167 24 22.9167 23.2833C22.9167 22.3833 22.6667 22.25 22.1 22.05L21.25 21.75V24.5833Z" fill="white"/>
<path d="M32.6334 9.1335L29.2167 12.5502C28.9667 12.8002 28.65 12.9168 28.3334 12.9168C28.0167 12.9168 27.7 12.8002 27.45 12.5502C26.9667 12.0668 26.9667 11.2668 27.45 10.7835L30.8667 7.36683C27.9334 4.86683 24.15 3.3335 20 3.3335C10.8 3.3335 3.33337 10.8002 3.33337 20.0002C3.33337 29.2002 10.8 36.6668 20 36.6668C29.2 36.6668 36.6667 29.2002 36.6667 20.0002C36.6667 15.8502 35.1334 12.0668 32.6334 9.1335ZM22.9167 19.7002C23.9834 20.0835 25.4167 20.8502 25.4167 23.3002C25.4167 25.3835 23.7667 27.1002 21.75 27.1002H21.25V27.5168C21.25 28.2002 20.6834 28.7668 20 28.7668C19.3167 28.7668 18.75 28.2002 18.75 27.5168V27.1002H18.6167C16.4 27.1002 14.5834 25.2335 14.5834 22.9335C14.5834 22.2335 15.15 21.6668 15.8334 21.6668C16.5167 21.6668 17.0834 22.2335 17.0834 22.9168C17.0834 23.8335 17.7667 24.5835 18.6167 24.5835H18.75V20.8835L17.0834 20.3002C16.0167 19.9168 14.5834 19.1502 14.5834 16.7002C14.5834 14.6168 16.2334 12.9002 18.25 12.9002H18.75V12.5002C18.75 11.8168 19.3167 11.2502 20 11.2502C20.6834 11.2502 21.25 11.8168 21.25 12.5002V12.9168H21.3834C23.6 12.9168 25.4167 14.7835 25.4167 17.0835C25.4167 17.7668 24.85 18.3335 24.1667 18.3335C23.4834 18.3335 22.9167 17.7668 22.9167 17.0835C22.9167 16.1668 22.2334 15.4168 21.3834 15.4168H21.25V19.1168L22.9167 19.7002Z" fill="white"/>
<path d="M37.8167 2.85016C37.6833 2.55016 37.45 2.30016 37.1333 2.16683C36.9833 2.11683 36.8333 2.0835 36.6667 2.0835H30C29.3167 2.0835 28.75 2.65016 28.75 3.3335C28.75 4.01683 29.3167 4.5835 30 4.5835H33.65L30.8667 7.36683C31.5 7.91683 32.0833 8.50016 32.6333 9.1335L35.4167 6.35016V10.0002C35.4167 10.6835 35.9833 11.2502 36.6667 11.2502C37.35 11.2502 37.9167 10.6835 37.9167 10.0002V3.3335C37.9167 3.16683 37.8833 3.01683 37.8167 2.85016Z" fill="white"/>
</svg>
