<svg width="40" height="40" viewBox="0 0 40 40" fill="none" xmlns="http://www.w3.org/2000/svg">
<path d="M33.5 15.3667C30.4833 15.3667 29.25 13.2334 30.75 10.6167C31.6167 9.10006 31.1 7.16672 29.5833 6.30006L26.7 4.65006C25.3833 3.86672 23.6833 4.33339 22.9 5.65006L22.7167 5.96672C21.2167 8.58339 18.75 8.58339 17.2333 5.96672L17.05 5.65006C16.3 4.33339 14.6 3.86672 13.2833 4.65006L10.4 6.30006C8.88334 7.16672 8.36667 9.11672 9.23334 10.6334C10.75 13.2334 9.51667 15.3667 6.5 15.3667C4.76667 15.3667 3.33334 16.7834 3.33334 18.5334V21.4667C3.33334 23.2001 4.75 24.6334 6.5 24.6334C9.51667 24.6334 10.75 26.7667 9.23334 29.3834C8.36667 30.9001 8.88334 32.8334 10.4 33.7001L13.2833 35.3501C14.6 36.1334 16.3 35.6667 17.0833 34.3501L17.2667 34.0334C18.7667 31.4167 21.2333 31.4167 22.75 34.0334L22.9333 34.3501C23.7167 35.6667 25.4167 36.1334 26.7333 35.3501L29.6167 33.7001C31.1333 32.8334 31.65 30.8834 30.7833 29.3834C29.2667 26.7667 30.5 24.6334 33.5167 24.6334C35.25 24.6334 36.6833 23.2167 36.6833 21.4667V18.5334C36.6667 16.8001 35.25 15.3667 33.5 15.3667ZM20 25.4167C17.0167 25.4167 14.5833 22.9834 14.5833 20.0001C14.5833 17.0167 17.0167 14.5834 20 14.5834C22.9833 14.5834 25.4167 17.0167 25.4167 20.0001C25.4167 22.9834 22.9833 25.4167 20 25.4167Z" fill="#C5C7D3"/>
</svg>
