<svg width="40" height="40" viewBox="0 0 40 40" fill="none" xmlns="http://www.w3.org/2000/svg">
<path d="M35.1166 8.71683C32.4333 8.45016 29.75 8.25016 27.05 8.10016V8.0835L26.6833 5.91683C26.4333 4.3835 26.0666 2.0835 22.1666 2.0835H17.8C13.9166 2.0835 13.55 4.2835 13.2833 5.90016L12.9333 8.0335C11.3833 8.1335 9.83331 8.2335 8.28331 8.3835L4.88331 8.71683C4.18331 8.7835 3.68331 9.40016 3.74998 10.0835C3.81664 10.7668 4.41664 11.2668 5.11664 11.2002L8.51664 10.8668C17.25 10.0002 26.05 10.3335 34.8833 11.2168C34.9333 11.2168 34.9666 11.2168 35.0166 11.2168C35.65 11.2168 36.2 10.7335 36.2666 10.0835C36.3166 9.40016 35.8166 8.7835 35.1166 8.71683Z" fill="white"/>
<path d="M32.05 13.5665C31.65 13.1498 31.1 12.9165 30.5334 12.9165H9.4667C8.90003 12.9165 8.33336 13.1498 7.95003 13.5665C7.5667 13.9832 7.35003 14.5498 7.38336 15.1332L8.4167 32.2332C8.60003 34.7665 8.83336 37.9332 14.65 37.9332H25.35C31.1667 37.9332 31.4 34.7832 31.5834 32.2332L32.6167 15.1498C32.65 14.5498 32.4334 13.9832 32.05 13.5665ZM22.7667 29.5832H17.2167C16.5334 29.5832 15.9667 29.0165 15.9667 28.3332C15.9667 27.6498 16.5334 27.0832 17.2167 27.0832H22.7667C23.45 27.0832 24.0167 27.6498 24.0167 28.3332C24.0167 29.0165 23.45 29.5832 22.7667 29.5832ZM24.1667 22.9165H15.8334C15.15 22.9165 14.5834 22.3498 14.5834 21.6665C14.5834 20.9832 15.15 20.4165 15.8334 20.4165H24.1667C24.85 20.4165 25.4167 20.9832 25.4167 21.6665C25.4167 22.3498 24.85 22.9165 24.1667 22.9165Z" fill="white"/>
</svg>
