<svg width="35" height="35" viewBox="0 0 35 35" fill="none" xmlns="http://www.w3.org/2000/svg">
<path d="M10.9375 22.2397C10.6604 22.2397 10.3833 22.1376 10.1646 21.9188C9.74168 21.4959 9.74168 20.7959 10.1646 20.373L14.8313 15.7063C15.0646 15.473 15.3709 15.3563 15.7063 15.3855C16.0271 15.4147 16.3188 15.5897 16.5084 15.8668L18.0979 18.2584L23.275 13.0813C23.6979 12.6584 24.3979 12.6584 24.8209 13.0813C25.2438 13.5043 25.2438 14.2043 24.8209 14.6272L18.6959 20.7522C18.4625 20.9855 18.1563 21.1022 17.8209 21.073C17.5 21.0438 17.2084 20.8688 17.0188 20.5918L15.4292 18.2001L11.7104 21.9188C11.4917 22.1376 11.2146 22.2397 10.9375 22.2397Z" fill="white"/>
<path d="M24.0625 17.8644C23.4646 17.8644 22.9688 17.3686 22.9688 16.7707V14.9478H21.1459C20.548 14.9478 20.0521 14.4519 20.0521 13.854C20.0521 13.2561 20.548 12.7603 21.1459 12.7603H24.0625C24.6605 12.7603 25.1563 13.2561 25.1563 13.854V16.7707C25.1563 17.3686 24.6605 17.8644 24.0625 17.8644Z" fill="white"/>
<path d="M21.875 33.1769H13.125C5.20621 33.1769 1.82288 29.7936 1.82288 21.8748V13.1248C1.82288 5.20609 5.20621 1.82275 13.125 1.82275H21.875C29.7937 1.82275 33.177 5.20609 33.177 13.1248V21.8748C33.177 29.7936 29.7937 33.1769 21.875 33.1769ZM13.125 4.01025C6.40204 4.01025 4.01038 6.40192 4.01038 13.1248V21.8748C4.01038 28.5978 6.40204 30.9894 13.125 30.9894H21.875C28.5979 30.9894 30.9895 28.5978 30.9895 21.8748V13.1248C30.9895 6.40192 28.5979 4.01025 21.875 4.01025H13.125Z" fill="white"/>
</svg>
