<svg width="35" height="35" viewBox="0 0 35 35" fill="none" xmlns="http://www.w3.org/2000/svg">
<path d="M21.8752 33.1773H13.1252C11.2002 33.1773 9.59605 32.9877 8.2398 32.5794C7.74397 32.4335 7.42313 31.9523 7.4523 31.4418C7.81688 27.0814 12.2356 23.6543 17.5002 23.6543C22.7648 23.6543 27.169 27.0668 27.5481 31.4418C27.5919 31.9668 27.271 32.4335 26.7606 32.5794C25.4044 32.9877 23.8002 33.1773 21.8752 33.1773ZM9.80022 30.7127C10.7627 30.9023 11.8565 30.9898 13.1252 30.9898H21.8752C23.144 30.9898 24.2377 30.9023 25.2002 30.7127C24.4273 27.9127 21.2335 25.8418 17.5002 25.8418C13.7669 25.8418 10.5731 27.9127 9.80022 30.7127Z" fill="white"/>
<path d="M21.875 2.9165H13.125C5.83333 2.9165 2.91666 5.83317 2.91666 13.1248V21.8748C2.91666 27.3873 4.57917 30.4061 8.54583 31.529C8.86667 27.7373 12.7604 24.7477 17.5 24.7477C22.2396 24.7477 26.1333 27.7373 26.4542 31.529C30.4208 30.4061 32.0833 27.3873 32.0833 21.8748V13.1248C32.0833 5.83317 29.1667 2.9165 21.875 2.9165ZM17.5 20.6644C14.6125 20.6644 12.2792 18.3165 12.2792 15.429C12.2792 12.5415 14.6125 10.2082 17.5 10.2082C20.3875 10.2082 22.7208 12.5415 22.7208 15.429C22.7208 18.3165 20.3875 20.6644 17.5 20.6644Z" stroke="white" stroke-width="2.5" stroke-linecap="round" stroke-linejoin="round"/>
<path d="M17.4999 21.7585C14.0145 21.7585 11.1853 18.9148 11.1853 15.4294C11.1853 11.9439 14.0145 9.11475 17.4999 9.11475C20.9853 9.11475 23.8145 11.9439 23.8145 15.4294C23.8145 18.9148 20.9853 21.7585 17.4999 21.7585ZM17.4999 11.3022C15.2249 11.3022 13.3728 13.1544 13.3728 15.4294C13.3728 17.7189 15.2249 19.571 17.4999 19.571C19.7749 19.571 21.627 17.7189 21.627 15.4294C21.627 13.1544 19.7749 11.3022 17.4999 11.3022Z" fill="white"/>
</svg>
